<?xml version="1.0" encoding="utf-8"?>
<!-- Generator: Adobe Illustrator 28.0.0, SVG Export Plug-In . SVG Version: 6.00 Build 0)  -->
<svg version="1.1" id="Layer_1" xmlns="http://www.w3.org/2000/svg" xmlns:xlink="http://www.w3.org/1999/xlink" x="0px" y="0px"
	 viewBox="0 0 229.61 82.2" style="enable-background:new 0 0 229.61 82.2;" xml:space="preserve">
<style type="text/css">
	.st0{fill:#2FB173;}
	.st1{fill:#F59DC5;}
	.st2{fill:#DE1563;}
	.st3{fill:#78C9E7;}
	.st4{fill:#FFFFFF;}
	.st5{fill:url(#SVGID_1_);}
	.st6{fill:url(#SVGID_00000070117313437981630830000007458567404805785475_);}
	.st7{fill:url(#SVGID_00000152956555751154462300000012788229175187732881_);}
	.st8{fill:url(#SVGID_00000007400509853506051850000006857157861440851135_);}
</style>
<g>
	<g>
		<g>
			<path class="st0" d="M75.5,80.28H59.89l7.77-11.82L75.5,80.28z M64.22,77.94h6.92l-3.48-5.23L64.22,77.94z"/>
		</g>
		<g>
			<path class="st1" d="M105.68,80.72H93.26V68.3h12.42V80.72z M95.6,78.38h7.74v-7.74H95.6V78.38z"/>
		</g>
		<g>
			<path class="st2" d="M130.82,80.89c-3.51,0-6.38-2.86-6.38-6.38c0-3.51,2.86-6.38,6.38-6.38c3.52,0,6.38,2.86,6.38,6.38
				C137.2,78.03,134.34,80.89,130.82,80.89z M130.82,70.48c-2.22,0-4.04,1.81-4.04,4.04c0,2.23,1.81,4.04,4.04,4.04
				c2.23,0,4.04-1.81,4.04-4.04C134.86,72.29,133.05,70.48,130.82,70.48z"/>
		</g>
		<polygon class="st3" points="168.38,70.13 166.72,68.48 162.34,72.86 157.97,68.48 156.31,70.13 160.69,74.51 156.31,78.89 
			157.97,80.54 162.34,76.17 166.72,80.54 168.38,78.89 164,74.51 		"/>
	</g>
	<polygon class="st4" points="70.15,14.37 70.15,1.32 47.34,1.32 47.34,14.37 50.81,14.37 50.81,27.6 35.13,1.5 35.13,1.32 
		35.02,1.32 34.85,1.05 34.41,1.32 16.27,1.32 16.27,14.37 19.71,14.37 19.71,45.78 16.27,45.78 16.27,58.83 38.96,58.83 
		38.96,45.78 35.52,45.78 35.52,33.19 50.81,58.65 50.81,58.83 70.15,58.83 70.15,45.78 66.61,45.78 66.61,14.37 	"/>
	<g>
		<polygon class="st4" points="165.55,27.76 165.55,10.48 156.52,1.45 131.03,1.45 121.69,10.78 121.69,20.05 137.55,20.05 
			137.55,16.19 139.59,14.27 147.73,14.27 149.65,16.19 149.65,21.65 147.93,23.37 140.6,23.37 140.6,36.76 148.01,36.76 
			149.65,38.56 149.65,44.14 147.9,45.89 139.65,45.89 137.6,43.84 137.6,41.09 121.69,41.09 121.69,49.76 130.83,58.9 156.59,58.9 
			165.69,49.81 165.69,32.51 163.24,30.06 		"/>
		<polygon class="st4" points="210.89,30.06 213.2,27.76 213.2,10.48 204.17,1.45 178.68,1.45 169.34,10.78 169.34,20.05 
			185.2,20.05 185.2,16.19 187.24,14.27 195.38,14.27 197.3,16.19 197.3,21.65 195.58,23.37 188.25,23.37 188.25,36.76 
			195.66,36.76 197.3,38.56 197.3,44.14 195.55,45.89 187.3,45.89 185.25,43.84 185.25,41.09 169.34,41.09 169.34,49.76 
			178.48,58.9 204.24,58.9 213.34,49.81 213.34,32.51 		"/>
	</g>
	<path class="st4" d="M117.68,10.6l-9.28-9.28H83.17l-9.31,9.1v39.2l9.28,9.28h25.23l9.31-9.1V10.6z M89.66,43.87V16.31l1.95-1.95
		h8.2l1.95,1.95v27.56l-1.97,1.97h-8.15L89.66,43.87z"/>
	<g>
		<path class="st4" d="M224.29,8.15c-0.11-0.12-0.25-0.23-0.42-0.32c0.47-0.12,0.83-0.31,1.08-0.57c0.3-0.31,0.45-0.73,0.45-1.24
			c0-0.52-0.18-0.97-0.53-1.33c-0.35-0.36-0.92-0.54-1.68-0.54h-3.09v6.51h1.45v-2.6h0.25c0.37,0,0.67,0.1,0.89,0.31
			c0.23,0.21,0.51,0.62,0.82,1.22l0.55,1.07h1.78l-0.82-1.4C224.69,8.69,224.44,8.33,224.29,8.15z M223.58,6.7
			c-0.21,0.13-0.57,0.19-1.08,0.19h-0.96V5.33h1.1c0.42,0,0.74,0.07,0.95,0.2c0.19,0.13,0.29,0.31,0.29,0.56
			C223.87,6.38,223.78,6.57,223.58,6.7z"/>
		<path class="st4" d="M227.12,3.13c-1.16-1.2-2.67-1.8-4.47-1.8c-0.8,0-1.69,0.23-2.62,0.67c-0.94,0.45-1.73,1.17-2.35,2.15
			c-0.62,0.98-0.94,2.07-0.94,3.24c0,1.67,0.6,3.11,1.77,4.29c1.18,1.18,2.62,1.78,4.29,1.78c1.66,0,3.1-0.6,4.28-1.78
			c1.18-1.18,1.78-2.62,1.78-4.28C228.87,5.76,228.28,4.33,227.12,3.13z M226.15,10.72c-0.92,0.92-2.04,1.39-3.33,1.39
			c-1.29,0-2.42-0.47-3.34-1.39c-0.92-0.92-1.39-2.04-1.39-3.34c0-1.25,0.45-2.36,1.34-3.31c0.89-0.95,2.07-1.43,3.51-1.43
			c0.67,0,1.37,0.19,2.1,0.56c0.73,0.37,1.33,0.94,1.79,1.69c0.46,0.75,0.7,1.58,0.7,2.47C227.54,8.68,227.07,9.8,226.15,10.72z"/>
	</g>
	<g>
		<linearGradient id="SVGID_1_" gradientUnits="userSpaceOnUse" x1="43.2089" y1="58.8317" x2="43.2089" y2="30.1751">
			<stop  offset="0.6629" style="stop-color:#FFFFFF"/>
			<stop  offset="1" style="stop-color:#6B6B6B"/>
		</linearGradient>
		<polygon class="st5" points="66.61,30.18 19.71,30.18 19.71,45.78 16.27,45.78 16.27,58.83 38.96,58.83 38.96,45.78 35.52,45.78 
			35.52,33.19 50.81,58.65 50.81,58.83 70.15,58.83 70.15,45.78 66.61,45.78 		"/>
		
			<linearGradient id="SVGID_00000169551046449504128820000009481181206858937734_" gradientUnits="userSpaceOnUse" x1="143.6863" y1="58.9041" x2="143.6863" y2="30.1751">
			<stop  offset="0.6629" style="stop-color:#FFFFFF"/>
			<stop  offset="1" style="stop-color:#6B6B6B"/>
		</linearGradient>
		<polygon style="fill:url(#SVGID_00000169551046449504128820000009481181206858937734_);" points="140.6,30.18 140.6,36.76 
			148.01,36.76 149.65,38.56 149.65,44.14 147.9,45.89 139.65,45.89 137.6,43.84 137.6,41.09 121.69,41.09 121.69,49.76 
			130.83,58.9 156.59,58.9 165.69,49.81 165.69,32.51 163.36,30.18 		"/>
		
			<linearGradient id="SVGID_00000077287055545602775050000007606965812623551128_" gradientUnits="userSpaceOnUse" x1="191.336" y1="58.9041" x2="191.336" y2="30.1751">
			<stop  offset="0.6629" style="stop-color:#FFFFFF"/>
			<stop  offset="1" style="stop-color:#6B6B6B"/>
		</linearGradient>
		<polygon style="fill:url(#SVGID_00000077287055545602775050000007606965812623551128_);" points="211.01,30.18 188.25,30.18 
			188.25,36.76 195.66,36.76 197.3,38.56 197.3,44.14 195.55,45.89 187.3,45.89 185.25,43.84 185.25,41.09 169.34,41.09 
			169.34,49.76 178.48,58.9 204.24,58.9 213.34,49.81 213.34,32.51 		"/>
		
			<linearGradient id="SVGID_00000025428712958772197620000000099313312927939480_" gradientUnits="userSpaceOnUse" x1="95.7672" y1="58.8966" x2="95.7672" y2="30.1751">
			<stop  offset="0.6629" style="stop-color:#FFFFFF"/>
			<stop  offset="1" style="stop-color:#6B6B6B"/>
		</linearGradient>
		<polygon style="fill:url(#SVGID_00000025428712958772197620000000099313312927939480_);" points="101.75,43.87 99.78,45.85 
			91.63,45.85 89.66,43.87 89.66,30.18 73.86,30.18 73.86,49.62 83.14,58.9 108.37,58.9 117.68,49.8 117.68,30.18 101.75,30.18 		
			"/>
	</g>
</g>
</svg>
